<svg fill="none" height="608" viewBox="0 0 920 608" width="920" xmlns="http://www.w3.org/2000/svg" xmlns:xlink="http://www.w3.org/1999/xlink"><filter id="a" color-interpolation-filters="sRGB" filterUnits="userSpaceOnUse" height="209.461" width="429.652" x="230.467" y="111.515"><feFlood flood-opacity="0" result="BackgroundImageFix"/><feColorMatrix in="SourceAlpha" result="hardAlpha" type="matrix" values="0 0 0 0 0 0 0 0 0 0 0 0 0 0 0 0 0 0 127 0"/><feOffset/><feGaussianBlur stdDeviation="12.5"/><feComposite in2="hardAlpha" operator="out"/><feColorMatrix type="matrix" values="0 0 0 0 0.762147 0 0 0 0 1 0 0 0 0 0.374072 0 0 0 1 0"/><feBlend in2="BackgroundImageFix" mode="normal" result="effect1_dropShadow_24_2794"/><feBlend in="SourceGraphic" in2="effect1_dropShadow_24_2794" mode="normal" result="shape"/></filter><linearGradient id="b"><stop offset="0" stop-color="#ffef9d"/><stop offset=".592159" stop-color="#f17275"/><stop offset="1" stop-color="#c74a4d"/></linearGradient><linearGradient id="c" gradientUnits="userSpaceOnUse" x1="417.885" x2="423.75" xlink:href="#b" y1="335.767" y2="436.386"/><linearGradient id="d" gradientUnits="userSpaceOnUse" x1="481.99" x2="488.694" xlink:href="#b" y1="319.333" y2="440.602"/><linearGradient id="e" gradientUnits="userSpaceOnUse" x1="545.396" x2="551.813" xlink:href="#b" y1="337.933" y2="444.59"/><linearGradient id="f" gradientUnits="userSpaceOnUse" x1="611" x2="599.28" y1="380.5" y2="444.104"><stop offset="0" stop-color="#fff59d"/><stop offset=".496303" stop-color="#f17275"/><stop offset="1" stop-color="#f38d8e"/></linearGradient><linearGradient id="g" gradientUnits="userSpaceOnUse" x1="447.5" x2="447.5" y1="405" y2="557"><stop offset="0" stop-color="#f06d70"/><stop offset=".232478" stop-color="#f38d8e"/><stop offset="1" stop-color="#fbf5ef" stop-opacity="0"/></linearGradient><linearGradient id="h" gradientUnits="userSpaceOnUse" x1="305.5" x2="420.035" y1="355" y2="545.975"><stop offset="0" stop-color="#ff5f63"/><stop offset="1" stop-color="#fbf5ef"/></linearGradient><linearGradient id="i" gradientUnits="userSpaceOnUse" x1="309.99" x2="293.861" y1="354.933" y2="420.966"><stop offset="0" stop-color="#ffe49d"/><stop offset=".682279" stop-color="#ff8a8b"/><stop offset="1" stop-color="#ff9f9e" stop-opacity="0"/></linearGradient><linearGradient id="j" gradientUnits="userSpaceOnUse" x1="449.929" x2="461.716" y1="133.022" y2="302.67"><stop offset="0" stop-color="#e9fff8" stop-opacity="0"/><stop offset="1" stop-color="#e7ffce" stop-opacity=".33"/></linearGradient><linearGradient id="k" gradientUnits="userSpaceOnUse" x1="449.929" x2="455.929" y1="133.022" y2="331.163"><stop offset="0" stop-color="#8bf1ff" stop-opacity="0"/><stop offset="1" stop-color="#b0ff0a"/></linearGradient><linearGradient id="l" gradientUnits="userSpaceOnUse" x1="433.648" x2="458.206" y1="137.428" y2="288.39"><stop offset="0" stop-color="#cfffd4" stop-opacity="0"/><stop offset="1" stop-color="#c5ff8b"/></linearGradient><linearGradient id="m" gradientUnits="userSpaceOnUse" x1="421.749" x2="475.619" y1="155.36" y2="272.283"><stop offset="0" stop-color="#e9fff8" stop-opacity="0"/><stop offset="1" stop-color="#ffd1ce" stop-opacity=".39"/></linearGradient><linearGradient id="n" gradientUnits="userSpaceOnUse" x1="421.749" x2="479.162" y1="155.36" y2="294.007"><stop offset="0" stop-color="#ffcaac" stop-opacity="0"/><stop offset="1" stop-color="#ff800a"/></linearGradient><linearGradient id="o" gradientUnits="userSpaceOnUse" x1="343" x2="343" y1="124" y2="167"><stop offset="0" stop-color="#b2d6ff"/><stop offset="1" stop-color="#76ff94" stop-opacity=".06"/></linearGradient><linearGradient id="p"><stop offset="0" stop-color="#b2def4"/><stop offset="1" stop-color="#cffeec"/></linearGradient><linearGradient id="q" gradientUnits="userSpaceOnUse" x1="347" x2="347" xlink:href="#p" y1="40" y2="90"/><linearGradient id="r" gradientUnits="userSpaceOnUse" x1="347" x2="347" xlink:href="#p" y1="47" y2="83"/><linearGradient id="s" gradientUnits="userSpaceOnUse" x1="347" x2="347" xlink:href="#p" y1="55" y2="75"/><linearGradient id="t" gradientUnits="userSpaceOnUse" x1="347" x2="347" xlink:href="#p" y1="61" y2="69"/><linearGradient id="u"><stop offset="0" stop-color="#fdc1a4"/><stop offset="1" stop-color="#ffefc6"/></linearGradient><linearGradient id="v" gradientUnits="userSpaceOnUse" x1="226" x2="226" xlink:href="#u" y1="420" y2="456"/><linearGradient id="w" gradientUnits="userSpaceOnUse" x1="226" x2="226" xlink:href="#u" y1="428" y2="448"/><linearGradient id="x" gradientUnits="userSpaceOnUse" x1="226" x2="226" xlink:href="#u" y1="434" y2="442"/><linearGradient id="y"><stop offset="0" stop-color="#ffd4d4"/><stop offset="1" stop-color="#dafddb"/></linearGradient><linearGradient id="z" gradientUnits="userSpaceOnUse" x1="482" x2="482" xlink:href="#y" y1="72" y2="108"/><linearGradient id="A" gradientUnits="userSpaceOnUse" x1="482" x2="482" xlink:href="#y" y1="76" y2="104"/><linearGradient id="B" gradientUnits="userSpaceOnUse" x1="482" x2="482" xlink:href="#y" y1="80" y2="100"/><linearGradient id="C" gradientUnits="userSpaceOnUse" x1="482" x2="482" xlink:href="#y" y1="85" y2="95"/><linearGradient id="D" gradientUnits="userSpaceOnUse" x1="553" x2="553" y1="192" y2="214"><stop offset="0" stop-color="#93bcec"/><stop offset="1" stop-color="#c1ff5c" stop-opacity="0"/></linearGradient><linearGradient id="E"><stop offset="0" stop-color="#f6ff8e"/><stop offset="1" stop-color="#25beff" stop-opacity="0"/></linearGradient><linearGradient id="F" gradientUnits="userSpaceOnUse" x1="191.5" x2="192.128" xlink:href="#E" y1="226" y2="261.808"/><linearGradient id="G" gradientUnits="userSpaceOnUse" x1="637.5" x2="637.5" xlink:href="#E" y1="60" y2="105.43"/><linearGradient id="H" gradientUnits="userSpaceOnUse" x1="748.5" x2="748.5" y1="202" y2="226"><stop offset="0" stop-color="#d8cfff"/><stop offset="1" stop-color="#ffb3fc" stop-opacity="0"/></linearGradient><linearGradient id="I" gradientUnits="userSpaceOnUse" x1="461.172" x2="461.172" y1="114.343" y2="246"><stop offset="0" stop-color="#adff00"/><stop offset="1" stop-color="#edfbf9"/></linearGradient><linearGradient id="J" gradientUnits="userSpaceOnUse" x1="773.5" x2="773.5" y1="219" y2="233"><stop offset="0" stop-color="#baf"/><stop offset="1" stop-color="#85ccff" stop-opacity="0"/></linearGradient><linearGradient id="K" gradientUnits="userSpaceOnUse" x1="784" x2="784" y1="80" y2="100"><stop offset="0" stop-color="#ff844f"/><stop offset="1" stop-color="#fff5d0"/></linearGradient><linearGradient id="L" gradientUnits="userSpaceOnUse" x1="792" x2="792" y1="80" y2="100"><stop offset="0" stop-color="#ff844f"/><stop offset="1" stop-color="#fff5d0" stop-opacity="0"/></linearGradient><linearGradient id="M" gradientUnits="userSpaceOnUse" x1="454.25" x2="433.453" y1="194.99" y2="258.349"><stop offset="0" stop-color="#e8fff8" stop-opacity="0"/><stop offset="1" stop-color="#b8ffea" stop-opacity=".55"/></linearGradient><linearGradient id="N" gradientUnits="userSpaceOnUse" x1="454.25" x2="428.012" y1="194.99" y2="268.271"><stop offset="0" stop-color="#0ff" stop-opacity="0"/><stop offset="1" stop-color="#8bf1ff"/></linearGradient><linearGradient id="O" gradientUnits="userSpaceOnUse" x1="471.561" x2="449.809" y1="205.112" y2="252.974"><stop offset="0" stop-color="#fffdec" stop-opacity="0"/><stop offset="1" stop-color="#fffdce" stop-opacity=".49"/></linearGradient><linearGradient id="P" gradientUnits="userSpaceOnUse" x1="465.48" x2="443.466" y1="201.58" y2="259.813"><stop offset="0" stop-color="#fffb92" stop-opacity="0"/><stop offset="1" stop-color="#faff0a"/></linearGradient><mask id="Q" height="608" maskUnits="userSpaceOnUse" width="920" x="0" y="0"><path d="m0 0h920v608h-920z" fill="#d9d9d9"/></mask><g mask="url(#Q)"><path d="m401.373 348.569c.306-8.686 7.436-15.569 16.127-15.569s15.821 6.883 16.127 15.569l2.373 67.431h-37z" fill="url(#c)"/><path d="m462.795 334.391c.606-10.327 9.158-18.391 19.502-18.391 10.492 0 19.111 8.288 19.522 18.772l3.181 81.228h-47z" fill="url(#d)"/><path d="m528.345 350.636c.323-8.727 7.491-15.636 16.225-15.636 8.687 0 15.835 6.839 16.22 15.517l3.21 72.483-38-8.899z" fill="url(#e)"/><path d="m596.238 387.476c1.879-4.142 6.138-6.676 10.675-6.352 6.57.471 11.215 6.63 9.862 13.077l-10.775 51.299-27.172-19.647z" fill="url(#f)"/><path d="m395.969 598h.013c.18-2.145 2.188-49.888-.013-70.85-1.963-18.7-37.182-34.267-55.947-49.209-33.373-26.573-52.022-66.925-52.022-66.925 51.04-9.842 102.08 2.953 105.025 2.953 10.208-5.512 31.736-8.858 41.224-8.858 13.087-.328 44.169 0 64.782 1.968 23.359 2.231 36.133 3.598 52.38 7.981 4.323 1.166 8.292 3.325 12.06 5.744 8.893 5.71 13.45 5.867 15.189 4.586.608-.449 1.587-.86 2.204-.423l24.134 17.108c1.165.825 1.598 2.354.942 3.622-9.101 17.592-36.176 42.023-57.832 63.738-18.061 18.109-14.069 80.363-9.816 88.565h-142.31c-.008.098-.013.101-.013 0z" fill="url(#g)"/><path d="m431.587 435.674c-33.052-29.95-80.991-33.168-101.321-30.541 0-5.911-1.77-25.024-4.918-42.363-15.739-15.763-26.75-3.941-28.527 3.94-2.062 9.145-7.246 28.731-9.991 43.475-.583 3.132-.178 6.368 1.12 9.277 21.879 49.022 42.409 54.33 78.713 77.293 29.904 18.916 24.92 70.378 21.641 79.245h72.794v-83.294c0-7.745-1.306-15.478-4.758-22.411-5.376-10.794-14.037-25.019-24.753-34.621z" fill="url(#h)"/><path d="m295.579 366.015c1.297-6.62 6.679-11.671 13.368-12.546 8.394-1.098 16.146 4.657 17.523 13.009l6.53 39.589v.983l-6.854 61.95-20.563-18.683-16.496-29.821c-1.994-3.604-2.653-7.795-1.861-11.837z" fill="url(#i)"/><path d="m844.254 190.859c.395 5.69-1.857 11.475-6.603 17.293-4.748 5.821-11.967 11.644-21.428 17.386-18.922 11.483-46.718 22.586-81.358 32.701-69.273 20.227-165.808 36.472-273.183 43.933-107.376 7.46-205.23 4.72-276.634-5.733-35.706-5.228-64.771-12.38-85.0988-21.136-10.1647-4.378-18.1193-9.147-23.6264-14.255-5.5046-5.107-8.5353-10.525-8.9306-16.215s1.857-11.474 6.6026-17.293c4.7477-5.821 11.9665-11.644 21.428-17.385 18.9222-11.483 46.7182-22.586 81.3582-32.701 69.272-20.228 165.808-36.473 273.183-43.933s205.23-4.721 276.634 5.733c35.706 5.227 64.77 12.38 85.099 21.135 10.164 4.379 18.119 9.147 23.626 14.256 5.505 5.106 8.535 10.524 8.931 16.214z" fill="url(#j)" stroke="url(#k)"/><g filter="url(#a)"><path clip-rule="evenodd" d="m458.206 288.39c104.591-18.722 183.597-66.199 176.465-106.044-7.132-39.844-97.701-56.967-202.292-38.245s-183.597 66.199-176.465 106.043 97.701 56.967 202.292 38.246zm-1.025-5.625c96.21-17.222 168.837-61.168 162.216-98.156-6.621-36.989-89.983-53.013-186.193-35.792-96.21 17.222-168.837 61.168-162.216 98.157s89.983 53.013 186.193 35.791z" fill="url(#l)" fill-rule="evenodd" shape-rendering="crispEdges"/></g><path d="m715.978 90.6706c1.79 3.8851 1.756 8.5497-.032 13.9214-1.788 5.374-5.321 11.418-10.465 18.012-10.287 13.187-26.951 28.488-48.726 44.928-43.542 32.876-107.431 70.242-181.346 104.297-73.914 34.055-143.831 58.337-197.114 70.072-26.645 5.868-49.104 8.592-65.812 7.843-8.355-.374-15.244-1.616-20.492-3.749-5.244-2.132-8.812-5.137-10.602-9.022s-1.756-8.55.032-13.921c1.788-5.375 5.321-11.418 10.465-18.012 10.287-13.187 26.952-28.488 48.726-44.928 43.543-32.876 107.432-70.243 181.346-104.297 73.914-34.055 143.831-58.3377 197.114-70.0723 26.645-5.8682 49.104-8.5924 65.812-7.8434 8.355.3746 15.244 1.6166 20.492 3.7495 5.244 2.1317 8.812 5.1367 10.602 9.0218z" fill="url(#m)" stroke="url(#n)"/><ellipse cx="343" cy="145.5" fill="url(#o)" rx="21" ry="21.5"/><circle cx="347" cy="65" r="24.5" stroke="url(#q)"/><circle cx="347" cy="65" r="17.5" stroke="url(#r)"/><circle cx="347" cy="65" r="9.5" stroke="url(#s)"/><circle cx="347" cy="65" r="3.5" stroke="url(#t)"/><circle cx="226" cy="438" r="17.5" stroke="url(#v)"/><circle cx="226" cy="438" r="9.5" stroke="url(#w)"/><circle cx="226" cy="438" r="3.5" stroke="url(#x)"/><circle cx="482" cy="90" r="17.5" stroke="url(#z)"/><circle cx="482" cy="90" r="13.5" stroke="url(#A)"/><circle cx="482" cy="90" r="9.5" stroke="url(#B)"/><circle cx="482" cy="90" r="4.5" stroke="url(#C)"/><circle cx="553" cy="203" fill="url(#D)" r="11"/><path d="m191.5 226 21.218 36.75h-42.436z" fill="url(#F)"/><path d="m637.5 60 25.548 44.25h-51.096z" fill="url(#G)"/><path d="m737 202h23v24h-23z" fill="url(#H)"/><circle cx="460.5" cy="179.5" fill="url(#I)" r="66.5"/><path d="m767 219h13v14h-13z" fill="url(#J)"/><path d="m784 80 8.66 15h-17.32z" fill="url(#K)"/><path d="m792 80 8.66 15h-17.32z" fill="url(#L)"/><path d="m655.495 296.139c-.711 1.933-2.778 3.483-6.317 4.574-3.521 1.085-8.377 1.675-14.44 1.777-12.119.203-28.937-1.542-49.26-5.039-40.639-6.994-95.21-20.979-154.076-40.301s-110.861-40.316-147.337-58.635c-18.241-9.161-32.582-17.643-41.959-24.903-4.69-3.631-8.114-6.939-10.165-9.853-2.062-2.929-2.667-5.356-1.956-7.289.71-1.933 2.777-3.483 6.316-4.573 3.521-1.085 8.377-1.675 14.44-1.777 12.12-.204 28.937 1.541 49.26 5.039 40.639 6.993 95.21 20.979 154.076 40.301s110.861 40.316 147.337 58.634c18.242 9.161 32.583 17.643 41.959 24.903 4.691 3.632 8.114 6.939 10.166 9.853 2.061 2.929 2.666 5.356 1.956 7.289z" fill="url(#M)" stroke="url(#N)"/><path d="m602.762 276.904c-.585 1.521-2.095 2.769-4.616 3.692-2.515.922-5.951 1.488-10.227 1.697-8.548.418-20.326-.596-34.51-2.917-28.358-4.64-66.234-14.488-106.899-28.449-40.666-13.961-76.399-29.384-101.297-43.027-12.452-6.823-22.172-13.19-28.443-18.695-3.137-2.754-5.388-5.273-6.69-7.505-1.305-2.237-1.616-4.11-1.032-5.631.585-1.521 2.096-2.769 4.616-3.692 2.515-.922 5.951-1.488 10.228-1.697 8.547-.418 20.326.596 34.509 2.917 28.358 4.64 66.234 14.489 106.9 28.45s76.399 29.383 101.296 43.026c12.452 6.824 22.173 13.191 28.443 18.696 3.137 2.754 5.388 5.272 6.69 7.504 1.306 2.237 1.617 4.11 1.032 5.631z" fill="url(#O)" stroke="url(#P)"/></g></svg>