<svg fill="none" height="100" viewBox="0 0 100 100" width="100" xmlns="http://www.w3.org/2000/svg" xmlns:xlink="http://www.w3.org/1999/xlink"><linearGradient id="a" gradientUnits="userSpaceOnUse" x1="50" x2="50" y1="10.5" y2="94"><stop offset="0" stop-color="#4cf3ba"/><stop offset="1" stop-color="#fff" stop-opacity="0"/></linearGradient><linearGradient id="b" gradientUnits="userSpaceOnUse" x1="50" x2="50" y1="20" y2="94"><stop offset="0" stop-color="#33e79b"/><stop offset="1" stop-color="#dfffda" stop-opacity=".45"/></linearGradient><mask id="c" fill="#fff"><path clip-rule="evenodd" d="m13 8h74v25h-74zm0 30h74v25h-74zm74 30h-74v25h74z" fill="#fff" fill-rule="evenodd"/></mask><path clip-rule="evenodd" d="m13 8h74v25h-74zm0 30h74v25h-74zm74 30h-74v25h74z" fill="url(#a)" fill-rule="evenodd"/><path d="m87 8h2v-2h-2zm-74 0v-2h-2v2zm74 25v2h2v-2zm-74 0h-2v2h2zm74 5h2v-2h-2zm-74 0v-2h-2v2zm74 25v2h2v-2zm-74 0h-2v2h2zm0 5v-2h-2v2zm74 0h2v-2h-2zm-74 25h-2v2h2zm74 0v2h2v-2zm0-87h-74v4h74zm2 27v-25h-4v25zm-76 2h74v-4h-74zm-2-27v25h4v-25zm76 28h-74v4h74zm2 27v-25h-4v25zm-76 2h74v-4h-74zm-2-27v25h4v-25zm2 32h74v-4h-74zm2 23v-25h-4v25zm72-2h-74v4h74zm-2-23v25h4v-25z" fill="url(#b)" mask="url(#c)"/></svg>