<svg fill="none" height="24" viewBox="0 0 24 24" width="24" xmlns="http://www.w3.org/2000/svg" xmlns:xlink="http://www.w3.org/1999/xlink"><clipPath id="a"><path d="m0 0h24v24h-24z"/></clipPath><g clip-path="url(#a)"><path d="m24 0h-24v24h24z" fill="#fff" fill-opacity=".01"/><g fill="#000"><path d="m9.80402 15.9996c.1668 1.0368.39358 1.9644.66478 2.7408.2952.8436.624 1.4544.9396 1.836.3204.3876.5256.4236.5916.4236s.2712-.036.5916-.4236c.3144-.3804.6432-.9924.9396-1.836.2712-.7752.498-1.704.6648-2.7408z"/><path d="m16.2192 15.9996c-.186 1.2672-.4572 2.4204-.8004 3.402-.3216.9192-.7236 1.7328-1.2108 2.3532 3.1284-.7056 5.7-2.8764 6.9576-5.7552z"/><path d="m8.58121 19.4016c-.3432-.9804-.6144-2.1336-.8004-3.402h-4.9464c1.2576 2.8776 3.8292 5.0496 6.9576 5.7552-.4872-.6204-.8892-1.434-1.2108-2.3532z"/><path d="m7.5 12c0-.6816.024-1.35.0684-2.0004h-5.3676c-.1308.6468-.2004 1.3152-.2004 2.0004s.0696 1.3536.2004 2.0004h5.3676c-.0444-.6504-.0684-1.3188-.0684-2.0004z"/><path d="m9.5004 12c0 .6888.0252 1.3572.0732 2.0004h4.854c.048-.642.0732-1.3116.0732-2.0004s-.0252-1.3572-.0732-2.0004h-4.854c-.048.6432-.0732 1.3116-.0732 2.0004z"/><path d="m21.7992 9.9996h-5.3676c.0444.6492.0684 1.3176.0684 2.0004s-.024 1.35-.0684 2.0004h5.3676c.1308-.6468.2004-1.3152.2004-2.0004s-.0684-1.3536-.2004-2.0004z"/><path d="m12.5916 3.4236c-.3204-.3876-.5256-.4236-.5916-.4236s-.2712.036-.5916.4236c-.3144.3804-.6432.9924-.9396 1.836-.2712.7752-.49798 1.704-.66478 2.7408h4.39078c-.1668-1.0368-.3936-1.9644-.6648-2.7408-.294-.8436-.6228-1.4556-.9384-1.836z"/><path d="m15.4188 4.5984c.3432.9804.6144 2.1336.8004 3.402h4.9464c-1.2576-2.8776-3.8292-5.0496-6.9576-5.7552.4872.6204.8892 1.434 1.2108 2.3532z"/><path d="m8.58121 4.5984c.3216-.9192.7236-1.7328 1.2108-2.3532-3.1284.7056-5.7 2.8764-6.9576 5.7552h4.9464c.1848-1.2684.4572-2.4216.8004-3.402z"/></g></g></svg>