<svg fill="none" height="220" viewBox="0 0 220 220" width="220" xmlns="http://www.w3.org/2000/svg" xmlns:xlink="http://www.w3.org/1999/xlink"><linearGradient id="a" gradientUnits="userSpaceOnUse" x1="110" x2="110" y1="47.9286" y2="220"><stop offset="0" stop-color="#fff" stop-opacity="0"/><stop offset="1" stop-color="#bcffa4"/></linearGradient><linearGradient id="b" gradientUnits="userSpaceOnUse" x1="110" x2="110" y1="47.9286" y2="220"><stop offset="0" stop-color="#fff" stop-opacity="0"/><stop offset="1" stop-color="#b5ffd2"/></linearGradient><linearGradient id="c"><stop offset="0" stop-color="#fff" stop-opacity="0"/><stop offset="1" stop-color="#93ecb6"/></linearGradient><radialGradient id="d" cx="0" cy="0" gradientTransform="matrix(3.55845607 -21.3106467 35.35835136 5.90414462 175.007 102.474)" gradientUnits="userSpaceOnUse" r="1" xlink:href="#c"/><radialGradient id="e" cx="0" cy="0" gradientTransform="matrix(1.07355643 -40.86119953 49.08116296 1.28952157 42.1667 151.638)" gradientUnits="userSpaceOnUse" r="1" xlink:href="#c"/><radialGradient id="f" cx="0" cy="0" gradientTransform="matrix(.42942205 -16.34445982 19.6324252 .51580758 88 117.855)" gradientUnits="userSpaceOnUse" r="1"><stop offset="0" stop-color="#fff" stop-opacity="0"/><stop offset="1" stop-color="#caec93"/></radialGradient><radialGradient id="g" cx="0" cy="0" gradientTransform="matrix(.51200452 -19.48767515 23.40792234 .61500215 130.167 146.913)" gradientUnits="userSpaceOnUse" r="1"><stop offset="0" stop-color="#fff" stop-opacity="0"/><stop offset="1" stop-color="#c3f237" stop-opacity=".83"/></radialGradient><linearGradient id="h" gradientUnits="userSpaceOnUse" x1="44.3731" x2="170.138" y1="144.94" y2="106.664"><stop offset="0" stop-color="#81ef66"/><stop offset="1" stop-color="#c3f237"/></linearGradient><linearGradient id="i" gradientUnits="userSpaceOnUse" x1="176.917" x2="188.604" y1="80.6666" y2="112.979"><stop offset="0" stop-color="#8fff00"/><stop offset="1" stop-color="#ddf3de"/></linearGradient><linearGradient id="j"><stop offset="0" stop-color="#74ec61"/><stop offset="1" stop-color="#f0ff92"/></linearGradient><linearGradient id="k" gradientUnits="userSpaceOnUse" x1="130.087" x2="139.485" xlink:href="#j" y1="131.542" y2="160.591"/><linearGradient id="l" gradientUnits="userSpaceOnUse" x1="75.1667" x2="98.8614" xlink:href="#j" y1="119.534" y2="110.421"/><linearGradient id="m" gradientUnits="userSpaceOnUse" x1="42.0707" x2="53.3485" xlink:href="#j" y1="131.542" y2="166.4"/><mask id="n" height="220" maskUnits="userSpaceOnUse" width="220" x="0" y="0"><circle cx="110" cy="110" fill="url(#b)" r="110"/></mask><circle cx="110" cy="110" fill="url(#a)" r="110"/><g clip-rule="evenodd" fill-rule="evenodd" mask="url(#n)"><path d="m175.007 128.792c16.327 0 29.562-13.236 29.562-29.5629s-13.235-29.5625-29.562-29.5625-29.563 13.2356-29.563 29.5625 13.236 29.5629 29.563 29.5629zm.274-17.519c6.5 0 11.77-5.27 11.77-11.7702 0-6.5005-5.27-11.7702-11.77-11.7702-6.501 0-11.771 5.2697-11.771 11.7702 0 6.5002 5.27 11.7702 11.771 11.7702z" fill="url(#d)"/><path d="m42.1667 187c21.938 0 39.7222-17.784 39.7222-39.722s-17.7842-39.722-39.7222-39.722-39.72224 17.784-39.72224 39.722 17.78424 39.722 39.72224 39.722zm.3679-23.539c8.7345 0 15.8153-7.081 15.8153-15.815 0-8.735-7.0808-15.816-15.8153-15.816-8.7346 0-15.8153 7.081-15.8153 15.816 0 8.734 7.0807 15.815 15.8153 15.815z" fill="url(#e)"/><path d="m88 132c8.7752 0 15.889-7.114 15.889-15.889s-7.1138-15.889-15.889-15.889-15.8889 7.114-15.8889 15.889 7.1137 15.889 15.8889 15.889zm.1471-9.416c3.4939 0 6.3262-2.832 6.3262-6.326s-2.8323-6.326-6.3262-6.326c-3.4938 0-6.3261 2.832-6.3261 6.326s2.8323 6.326 6.3261 6.326z" fill="url(#f)"/><path d="m130.167 163.778c10.462 0 18.944-8.482 18.944-18.945 0-10.462-8.482-18.944-18.944-18.944-10.463 0-18.945 8.482-18.945 18.944 0 10.463 8.482 18.945 18.945 18.945zm.175-11.227c4.166 0 7.543-3.377 7.543-7.542 0-4.166-3.377-7.543-7.543-7.543s-7.543 3.377-7.543 7.543c0 4.165 3.377 7.542 7.543 7.542z" fill="url(#g)"/></g><path d="m44.3731 145.851 45.5669-30.074 37.365 32.808 37.365-39.187 10.184-14.9814" stroke="url(#h)" stroke-linecap="round" stroke-width="4"/><circle cx="176.917" cy="98.5416" fill="url(#i)" r="17.875"/><circle cx="130.087" cy="145.212" fill="url(#k)" r="13.6701"/><circle cx="87.9254" cy="116.8" fill="url(#l)" r="12.7587"/><circle cx="42.0707" cy="147.946" fill="url(#m)" r="16.4041"/></svg>