<svg fill="none" height="22" viewBox="0 0 35 22" width="35" xmlns="http://www.w3.org/2000/svg"><path clip-rule="evenodd" d="m30.1469 1.35453c-1.1449 1.11871-2.0701 2.14788-2.5973 2.76466-.643-.01266-1.3629-.01266-2.109 0l-.7072-1.26069c-.6684-1.19558-1.4018-2.520482-2.8163-2.288963-1.2733.218858-2.0963 1.311343-2.1858 2.957293-.0253.34728.0389.70722.18 1.02917-2.7647.69456-5.2852 2.17321-7.1247 3.34346-3.63917 2.32784-9.10428 5.77444-11.18795 8.48754-1.504872 1.9543-.899848 5.0156-.899848 5.0156h21.989798c3.6003 0 5.4651-.8872 6.4301-2.0574.9514-1.145 1.286-2.5721 1.286-6.3017v-5.58085c1.9028-.30839 3.4981-1.46598 3.9864-3.42033.7579-3.00974-2.4318-4.463068-4.2442-2.68779z" fill="#333" fill-rule="evenodd"/><g fill="#fbf5ef"><path d="m19.7683 4.62011c-.1519 0-.2867-.10762-.3156-.26227-.0326-.17454.0823-.34276.2568-.37531.435-.0814.8628-.12119 1.3068-.12119.9017-.01266 2.1768 0 2.1895 0 .1773.00181.3201.14741.3183.32467s-.1501.32105-.3246.31834c-.0127 0-1.2797-.01266-2.1787 0-.4087 0-.7967.03617-1.1928.11033-.0199.00362-.0398.00543-.0597.00543z"/><path d="m29.6324 5.79091c-.0226 0-.0452-.00271-.0687-.00724-.1737-.03798-.284-.20891-.246-.38254.3219-1.48498 1.3601-2.67785 2.7764-3.19153.1664-.06059.3509.02532.4115.19263s-.0254.3509-.1927.41149c-1.2073.43772-2.0918 1.45604-2.3676 2.72396-.0317.15103-.1646.25323-.3129.25323z"/><path d="m18.9589 10.7428c.2062-.2062.3861.1284.643.643.2568.5146.3861.7714.7714 1.0291.3862.2569.7714.1285 1.0292-.5145.2568-.6431.2568-1.0292.3861-1.5429.1285-.51459.5146-.64301.6431.1284.1284.7714-.0643 1.8648-.7715 2.572-.643.6431-1.4144.3862-2.0574-.2568s-.9017-1.8015-.6439-2.0583z"/><path d="m8.41407 21.544s-.12843-.1285-.12843-.643c0-.5146.25685-1.8006.64301-2.5721.38617-.7714 1.02918-2.0574 2.31425-2.1858 1.2851-.1285 1.9291.2568 2.7005.5145.7714.2569 1.7228.2705 2.2121.0127.4115-.2062.7587-.5146 1.0029-.9134.2569-.3862 1.0545-.4368.2569.8998-.7715 1.2861-2.4436 1.1576-3.2151 1.0292-1.0291-.1673-1.6722-.7714-2.8288-.643-.8104.0904-1.2861.7714-1.80064 1.929-.4757 1.0799-.51459 1.6722-.64301 2.0575-.12842.3861 0 .5146-.45038.5146"/><path d="m3.01306 17.4287c.25684 0 .33462.5399.23152 1.1061-.1031.5661-.23152 1.2091-.74611 1.2091-.51458 0-.38616-1.0292-.25684-1.4144.12842-.3862.25684-.9008.77143-.9008z"/><path d="m5.32745 17.1716c.41149 0 .12842 1.0292.12842 1.5429 0 .5146-.25684 1.1576-.70722 1.0292-.45037-.1285-.53991-.7588-.32105-1.4145.25684-.7723.51368-1.1576.89985-1.1576z"/></g></svg>