<svg fill="none" height="33" viewBox="0 0 73 33" width="73" xmlns="http://www.w3.org/2000/svg"><g fill="#000"><path d="m7.86688 18.2259c2.27282 1.2169 3.10632-2.966-.08825-2.4327-.81353.1365-1.5232.1724-2.12899.1078-2.30876-.246-4.18497-2.0778-3.87553-4.4767.24079-1.86126 1.78904-3.52221 3.32095-4.5301 3.71973-2.44681 8.44844-2.9181 12.51894-1.02531 1.6779.78041 3.2284 2.0234 4.1577 3.62667.985 1.69794.4228 3.53084-1.1712 4.55294-2.2227 1.4258-5.4075.9175-7.2597-.911-.0429-.0421-.0345-.0588.0251-.0501.207.0319.4093.0646.6068.098 1.5265.2557 3.1074-.1067 3.9257-1.4934 1.0111-1.711-.1874-3.53413-1.7553-4.28733-1.9808-.95238-4.4573-.71728-6.0851.87293-.85642.83809-1.42625 1.9973-1.19963 3.2.43692 2.3195 3.27303 3.0073 5.02173 3.9739 1.0089.5573 1.9285 1.3932 2.2979 2.5241 1.0688 3.2664-2.3883 5.1711-5.1274 4.3134-1.74442-.5464-3.16519-2.1311-3.24909-4.0228-.00218-.0508.01961-.0642.06537-.0403z"/><path d="m68.2051 11.6125h-2.0418c-.0259 0-.0468.021-.0468.0469v10.5926c0 .0259.0209.0468.0468.0468h2.0418c.0259 0 .0469-.0209.0469-.0468v-10.5926c0-.0259-.021-.0469-.0469-.0469z"/><path d="m25.1526 19.276c.5622 1.5347 2.4057 1.7851 3.6064.8414.0283-.0225.0563-.0218.0839.0022l1.302 1.1483c.0052.0045.0094.0102.0122.0165.0028.0064.0042.0132.0041.0202-.0001.0069-.0017.0137-.0047.02-.003.0062-.0073.0118-.0127.0162-1.1193.8976-2.3992 1.2288-3.8396.9937-2.568-.4201-4.1196-3.1586-2.9254-5.5336 1.3881-2.7592 5.4815-2.9246 6.8707-.0729.3588.7372.4994 1.5565.4217 2.4577-.0022.0247-.0157.037-.0404.037h-5.4401c-.0378 0-.0505.0178-.0381.0533zm3.4517-1.6664c-.2913-.5812-.6719-.9585-1.1419-1.1319-1.0601-.393-2.0581.21-2.3545 1.244-.0012.0041-.0014.0084-.0006.0125.0007.0042.0024.0081.005.0115.0025.0034.0058.0061.0096.008s.0079.0029.0122.0029l3.3787.0011c.0174-.0001.0346-.0045.0498-.013s.028-.0208.0372-.0356.0144-.0317.0152-.0492c.0008-.0174-.0029-.0347-.0107-.0503z"/><path d="m55.9355 18.584c.0054.5084-.0936 1.0129-.2912 1.4848-.1976.4718-.49.9017-.8605 1.2651-.3704.3634-.8117.6532-1.2986.8528-.4869.1997-1.0099.3053-1.5391.3109-1.0689.0111-2.0982-.386-2.8616-1.1041s-1.1983-1.6984-1.2091-2.7251c-.0053-.5084.0937-1.0129.2913-1.4847s.49-.9017.8604-1.2651c.3705-.3634.8118-.6532 1.2987-.8529s1.0099-.3053 1.5391-.3108c1.0688-.0112 2.0982.3859 2.8615 1.104.7634.7182 1.1984 1.6984 1.2091 2.7251zm-2.1386.0487c0-.5011-.1992-.9817-.554-1.336-.3547-.3544-.8358-.5535-1.3374-.5535-.2484 0-.4944.0489-.7238.1439-.2295.0949-.438.2341-.6137.4096-.1756.1754-.3149.3837-.41.613-.0951.2292-.144.4749-.144.723 0 .5012.1993.9818.554 1.3361.3547.3544.8358.5535 1.3375.5535.5016 0 .9827-.1991 1.3374-.5535.3548-.3543.554-.8349.554-1.3361z"/><path d="m35.6973 16.8283c-1.1952.0066-1.7531.9295-1.7542 2.0191-.0007 1.1385.0004 2.2744.0033 3.4079 0 .0115-.0046.0226-.0128.0307-.0081.0082-.0192.0128-.0308.0128l-2.0429-.0011c-.0139 0-.0272-.0054-.037-.015s-.0153-.0226-.0153-.0361c-.0015-1.2068-.0022-2.4124-.0022-3.6169 0-1.8787.9839-3.3448 2.8655-3.7323 2.0854-.4299 4.2842.3941 4.7908 2.6667.0661.2968.1013.7917.1057 1.4846.0065 1.066.0062 2.1323-.0011 3.1989 0 .0356-.0178.0534-.0534.0534l-2.0113.0011c-.0443 0-.0665-.0222-.0665-.0664-.0021-1.132-.0043-2.2426-.0065-3.3317-.0011-1.0808-.5263-2.0822-1.7313-2.0757z"/><path d="m43.809 17.7218c1.3075.3047 3.1205.4354 3.2807 2.1562.1176 1.2582-.8281 2.1573-1.9689 2.4664-1.5798.4288-3.5007.0729-4.3734-1.4346-.0047-.008-.0077-.0168-.0089-.026-.0012-.0091-.0006-.0184.0019-.0273.0024-.009.0066-.0173.0123-.0246s.0128-.0133.0208-.0179l1.4687-.8196c.009-.0047.0193-.006.029-.0036.0097.0025.018.0084.0233.0167.3313.5283.799.7985 1.4034.8109.3726.0076.8368-.0359 1.0961-.2852.2513-.2416.2466-.4985-.0142-.7706-.0828-.0863-.3047-.1647-.6657-.2351-.693-.1357-1.2817-.2812-1.7662-.4365-.7986-.2547-1.4262-.8827-1.4643-1.8013-.0523-1.2811.9272-2.1791 2.117-2.412 1.5035-.2928 3.0573.1121 3.8679 1.4476.0039.0065.0064.0137.0075.0212.001.0074.0006.0151-.0013.0224-.002.0073-.0053.0141-.01.0201-.0046.006-.0103.011-.0169.0147l-1.4655.8163c-.0334.0189-.0603.0124-.0806-.0196-.3835-.587-.933-.8221-1.6485-.7053-.4195.0686-.8934.5551-.4848.9339.138.1277.3515.2253.6406.2928z"/><path d="m60.7603 20.4691c1.1026-.0849 1.57-1.0797 1.5678-2.0582-.0021-1.1131-.0025-2.2331-.001-3.36 0-.0179.0072-.0351.0201-.0477.0128-.0127.0303-.0198.0485-.0198h2.0146c.0341 0 .0515.0171.0523.0512.0087 1.9076.0094 3.1604.0022 3.7583-.0327 2.5753-2.043 3.9891-4.5184 3.6517-1.5276-.2079-2.6749-1.3899-2.9462-2.8985-.0501-.2772-.0762-.726-.0784-1.3464-.0036-1.0543-.0033-2.1086.0011-3.163 0-.0355.0181-.0533.0545-.0533h2.0418c.0063 0 .0125.0012.0183.0036.0058.0025.0111.006.0156.0104.0044.0045.008.0098.0104.0156s.0036.012.0036.0183c-.008 1.0173-.0076 2.0372.0011 3.0596.0076.9077.0981 1.6936.8215 2.1692.2506.1647.5408.2344.8706.209z"/></g><path d="m28.6043 17.6097c.0078.0156.0114.0329.0107.0503-.0008.0174-.006.0343-.0152.0492-.0092.0148-.022.027-.0372.0355-.0153.0085-.0324.013-.0498.013l-3.3788-.0011c-.0042 0-.0083-.001-.0121-.0029-.0038-.0018-.0071-.0046-.0096-.008-.0026-.0033-.0043-.0073-.005-.0114-.0008-.0042-.0006-.0085.0006-.0125.2964-1.034 1.2944-1.637 2.3545-1.2441.47.1734.8506.5508 1.1419 1.132z" fill="#fff"/><path d="m51.9055 20.5225c1.0446 0 1.8915-.846 1.8915-1.8896 0-1.0435-.8469-1.8895-1.8915-1.8895s-1.8915.846-1.8915 1.8895c0 1.0436.8469 1.8896 1.8915 1.8896z" fill="#fff"/></svg>