<svg width="920" height="608" viewBox="0 0 920 608" fill="none" xmlns="http://www.w3.org/2000/svg">
<mask id="mask0_24_2520" style="mask-type:alpha" maskUnits="userSpaceOnUse" x="0" y="0" width="920" height="608">
<rect width="920" height="608" fill="#D9D9D9"/>
</mask>
<g mask="url(#mask0_24_2520)">
<path d="M302 422.5C341.2 485.3 411 500.5 437 502C437 482 457 424.053 522 427.5C582 430.682 593 490 593 505C620 467 670.5 474 688 425C705.5 376 736.5 349.5 783 315C829.5 280.5 820.5 222 820.5 191.5C820.5 111.561 840.5 116 884.5 65C928.5 14 913 -58 777.5 -58L8.5 -46L-66 -46C6.5 -36 39.5 -0.5 39.5 130.5C39.5 166.5 57 264.5 127.5 310C145.985 321.93 253 344 302 422.5Z" fill="url(#paint0_linear_24_2520)"/>
<mask id="mask1_24_2520" style="mask-type:alpha" maskUnits="userSpaceOnUse" x="-66" y="-46" width="1031" height="551">
<path d="M302 422.5C341.2 485.3 411 500.5 437 502C437 482 457.5 422.5 520.5 426C578.944 429.247 593 490 593 505C620 467 670.5 474 688 425C705.5 376 736.5 349.5 783 315C829.5 280.5 820.5 222 820.5 191.5C820.5 111.561 847.5 106.5 891.5 55.5C964 -46 1013.5 -46 884 -46H-28.5L-66 -46C6.5 -36 45.5 74 31 164.5C21.8242 221.77 61.5 301.529 133.5 322.5C154.622 328.652 253 344 302 422.5Z" fill="url(#paint1_linear_24_2520)"/>
</mask>
<g mask="url(#mask1_24_2520)">
<path d="M408.999 222.711C421.295 231.486 415.466 240.86 410.63 243.857C437.475 242.767 443.437 245.983 446.958 248.735C449.774 250.937 438.521 253.131 432.542 253.953C437.96 254.729 447.012 258.658 447.652 260.927C447.346 265.478 442.007 263.959 428.424 261.884C405.132 257.65 400.186 258.037 382.451 258.141C364.715 258.246 343.075 265.501 329.872 272.97C316.669 280.438 301.091 289.729 288.64 295.257C242.592 314.293 228.477 311.36 227.332 311.395C226.186 311.43 217.561 310.549 217.899 307.141C218.238 303.733 220.32 303.434 229.104 302.829C237.888 302.224 259.466 296.283 257.518 296.544C255.569 296.805 237.913 296.167 234.707 296.063C231.5 295.96 224.785 294.684 225.274 291.81C225.764 288.935 227.787 288.941 244.686 287.92C263.246 286.949 275.389 278.829 279.141 274.89C274.22 273.829 274.508 273.315 273.455 269.58C275.127 262.194 284.827 261.763 293.113 261.443C307.064 248.636 343.553 239.2 360.053 236.083C351.537 236.612 326.088 241.629 315.347 244.514C306.755 246.822 303.082 246.772 302.32 246.459C300.208 244.606 299.209 241.575 303.787 237.835C308.114 234.3 333.166 230.583 335.219 230.378C321.943 230.34 306.438 232.621 300.329 233.769C298.872 233.892 295.83 233.281 295.325 229.851C294.694 225.564 303.277 222.711 307.959 221.391C335.393 212.962 364.466 218.61 375.573 222.487C387.978 218.845 399.207 217.694 408.999 222.711Z" fill="url(#paint2_linear_24_2520)"/>
<ellipse cx="399.767" cy="233.378" rx="3.45692" ry="3.39356" transform="rotate(-15.7496 399.767 233.378)" fill="#FF0000"/>
<path d="M161.293 68.2929C160.902 68.6834 160.902 69.3166 161.293 69.7071C161.683 70.0976 162.317 70.0976 162.707 69.7071L161.293 68.2929ZM234.293 -4.70711L161.293 68.2929L162.707 69.7071L235.707 -3.29289L234.293 -4.70711Z" fill="url(#paint3_linear_24_2520)"/>
<path d="M680.371 202.223C679.942 202.57 679.875 203.2 680.223 203.629C680.57 204.058 681.2 204.125 681.629 203.777L680.371 202.223ZM701.371 185.223L680.371 202.223L681.629 203.777L702.629 186.777L701.371 185.223Z" fill="url(#paint4_linear_24_2520)"/>
<path d="M485.403 297.198C484.96 297.527 484.868 298.154 485.198 298.597C485.527 299.04 486.154 299.132 486.597 298.802L485.403 297.198ZM528.403 265.198L485.403 297.198L486.597 298.802L529.597 266.802L528.403 265.198Z" fill="url(#paint5_linear_24_2520)"/>
<path d="M483.302 32.2835C482.907 32.6688 482.898 33.3019 483.284 33.6976C483.669 34.0933 484.302 34.1018 484.698 33.7165L483.302 32.2835ZM521.302 -4.71647L483.302 32.2835L484.698 33.7165L522.698 -3.28353L521.302 -4.71647Z" fill="url(#paint6_linear_24_2520)"/>
<path d="M282 188C281.609 188.391 281.609 189.024 282 189.414C282.39 189.805 283.024 189.805 283.414 189.414L282 188ZM302 168L282 188L283.414 189.414L303.414 169.414L302 168Z" fill="url(#paint7_linear_24_2520)"/>
<path d="M397.293 93.2929C396.902 93.6834 396.902 94.3166 397.293 94.7071C397.683 95.0976 398.317 95.0976 398.707 94.7071L397.293 93.2929ZM422.293 68.2929L397.293 93.2929L398.707 94.7071L423.707 69.7071L422.293 68.2929Z" fill="url(#paint8_linear_24_2520)"/>
<path d="M268.327 219.26C267.919 219.632 267.889 220.264 268.26 220.673C268.632 221.081 269.264 221.111 269.673 220.74L268.327 219.26ZM279.327 209.26L268.327 219.26L269.673 220.74L280.673 210.74L279.327 209.26Z" fill="url(#paint9_linear_24_2520)"/>
<path d="M6.2929 105.293C5.90237 105.683 5.90237 106.317 6.2929 106.707C6.68342 107.098 7.31659 107.098 7.70711 106.707L6.2929 105.293ZM79.2929 32.2929L6.2929 105.293L7.70711 106.707L80.7071 33.7071L79.2929 32.2929Z" fill="url(#paint10_linear_24_2520)"/>
<circle cx="767.92" cy="344.92" r="125.808" transform="rotate(45 767.92 344.92)" fill="url(#paint11_linear_24_2520)"/>
<circle cx="483.04" cy="154.04" r="65.7892" transform="rotate(45 483.04 154.04)" fill="url(#paint12_linear_24_2520)"/>
<circle cx="161.54" cy="291.54" r="30.7875" transform="rotate(45 161.54 291.54)" fill="url(#paint13_linear_24_2520)"/>
<circle cx="274.73" cy="46.73" r="16.0725" transform="rotate(45 274.73 46.73)" fill="url(#paint14_linear_24_2520)"/>
<circle cx="505" cy="1159" r="856" fill="url(#paint15_linear_24_2520)"/>
<ellipse cx="316.858" cy="362.828" rx="34.2013" ry="18.5023" transform="rotate(-15.2119 316.858 362.828)" fill="url(#paint16_linear_24_2520)"/>
<ellipse cx="432.639" cy="343.773" rx="34" ry="21" transform="rotate(-4.80371 432.639 343.773)" fill="url(#paint17_linear_24_2520)"/>
<ellipse cx="607.182" cy="345.834" rx="28.872" ry="15.6193" transform="rotate(8.76029 607.182 345.834)" fill="url(#paint18_linear_24_2520)"/>
<circle cx="749.566" cy="100.309" r="70" fill="url(#paint19_linear_24_2520)"/>
<path fill-rule="evenodd" clip-rule="evenodd" d="M910.148 33.486C919.07 54.9198 854.596 102.144 766.141 138.964C677.686 175.784 598.747 188.257 589.825 166.823C582.788 149.918 621.406 116.971 681.437 85.7381C680.202 91.9073 679.837 97.8427 679.805 101.34C641.2 122.746 617.376 143.213 621.683 153.561C627.902 168.5 690.386 156.699 761.246 127.203C832.105 97.7075 884.508 61.686 878.289 46.7473C873.956 36.3379 842.304 38.9116 799.536 51.4083C795.713 47.8266 790.634 43.88 787.471 41.5437C852.213 20.7934 903.089 16.5298 910.148 33.486Z" fill="url(#paint20_linear_24_2520)"/>
<path fill-rule="evenodd" clip-rule="evenodd" d="M867.493 50.8903C873.154 64.4891 825.228 97.3726 760.448 124.338C695.668 151.303 638.564 162.139 632.904 148.54C629.217 139.682 648.264 122.643 679.896 104.387C680.072 107.625 680.538 110.932 681.004 113.532C667.848 122.862 660.799 130.961 662.813 135.798C667.044 145.963 709.689 137.88 758.062 117.744C806.436 97.6079 842.22 73.0444 837.989 62.8797C835.885 57.824 824.277 57.2826 807.189 60.4931C805.369 57.8106 803.316 55.3619 801.554 53.5324C837.57 43.5864 863.754 41.9078 867.493 50.8903Z" fill="url(#paint21_linear_24_2520)"/>
<circle cx="126.382" cy="155.981" r="49.9445" transform="rotate(45 126.382 155.981)" fill="url(#paint22_linear_24_2520)"/>
<path fill-rule="evenodd" clip-rule="evenodd" d="M210.81 190.544C206.805 200.261 166.035 192.672 119.748 173.593C73.4616 154.515 39.1853 131.173 43.1902 121.456C45.7988 115.127 64.0052 116.14 89.1743 122.888C87.6294 124.61 86.1962 126.514 85.1195 128.061C73.7752 126.131 66.1332 126.661 64.7086 130.117C61.715 137.38 87.308 154.817 121.872 169.063C156.436 183.309 186.883 188.971 189.876 181.708C191.365 178.095 185.782 171.966 175.541 164.964C175.976 162.693 176.175 160.421 176.21 158.61C199.398 171.762 213.455 184.126 210.81 190.544Z" fill="url(#paint23_linear_24_2520)"/>
</g>
<path d="M600 701H574.651L571.944 650.544C571.94 650.454 571.892 650.409 571.802 650.409H570.673C570.583 650.409 570.54 650.453 570.546 650.542L573.249 701H463.057V650.464C463.057 650.45 463.052 650.437 463.042 650.428C463.033 650.418 463.02 650.413 463.006 650.413L461.721 650.409C461.685 650.409 461.668 650.426 461.668 650.462L461.666 701H424.019C424.013 682.915 424.014 664.831 424.021 646.747C424.021 646.742 424.015 646.135 424.002 644.926C423.89 633.607 427.739 623.066 436.856 616.049C442.226 611.915 449.343 609.721 456.039 609.583C457.471 609.553 460.327 609.542 464.605 609.551C465.899 609.553 466.879 609.481 467.546 609.334C471.143 608.537 473.993 605.644 474.753 602.128C474.922 601.352 475.006 599.993 475.005 598.051C475.002 590.45 475.001 582.85 475.001 575.251C475.001 575.18 474.97 575.124 474.909 575.085C451.796 560.32 437.807 534.473 437.563 507.036C437.33 480.712 448.873 456.015 469.924 440.1C476.846 434.868 485.088 430.592 493.561 428.125C509.561 423.468 525.355 424.016 540.942 429.77C558.377 436.207 572.909 449.5 581.844 465.652C591.379 482.894 594.417 503.703 590.338 523.031C585.515 545.888 571.567 565.734 551.156 577.248C549.96 577.923 548.749 578.556 547.524 579.147C531.231 587.011 514.155 588.772 496.295 584.433C496.264 584.426 496.248 584.439 496.248 584.47L496.25 585.365C496.25 585.406 496.271 585.432 496.312 585.443C516.372 590.479 537.289 587.16 554.724 576.285C554.791 576.244 554.825 576.264 554.825 576.343V609.993C554.825 610.074 554.865 610.115 554.946 610.116C557.683 610.145 560.413 610.163 563.136 610.169C570.035 610.186 575.137 613.74 578.984 619.2C582.525 624.226 584.917 629.674 586.16 635.543C590.779 657.361 595.392 679.18 600 701ZM550.762 624.741C550.759 624.709 550.743 624.68 550.719 624.66C550.695 624.64 550.663 624.631 550.632 624.634L527.034 626.988C527.019 626.99 527.004 626.995 526.99 627.002C526.976 627.009 526.964 627.019 526.954 627.031C526.944 627.043 526.937 627.057 526.932 627.072C526.928 627.087 526.926 627.103 526.928 627.118L526.977 627.616C526.98 627.647 526.996 627.676 527.02 627.696C527.045 627.716 527.076 627.725 527.107 627.722L550.705 625.368C550.721 625.366 550.736 625.362 550.75 625.355C550.763 625.347 550.776 625.337 550.785 625.325C550.795 625.313 550.803 625.299 550.807 625.284C550.812 625.269 550.813 625.254 550.812 625.238L550.762 624.741ZM515.071 627.166C515.071 627.12 515.052 627.076 515.02 627.044C514.988 627.012 514.944 626.994 514.898 626.994H483.768C483.722 626.994 483.678 627.012 483.646 627.044C483.614 627.076 483.595 627.12 483.595 627.166V627.563C483.595 627.586 483.6 627.608 483.609 627.629C483.617 627.65 483.63 627.669 483.646 627.685C483.662 627.701 483.681 627.714 483.702 627.722C483.723 627.731 483.745 627.735 483.768 627.735H514.898C514.921 627.735 514.943 627.731 514.964 627.722C514.985 627.714 515.004 627.701 515.02 627.685C515.036 627.669 515.049 627.65 515.058 627.629C515.066 627.608 515.071 627.586 515.071 627.563V627.166Z" fill="url(#paint24_linear_24_2520)"/>
<path d="M428.439 532.949C426.944 529.549 425.646 525.738 425.496 522.098C425.199 514.977 428.755 508.163 436.464 507.246C436.471 507.244 436.48 507.245 436.487 507.247C436.495 507.249 436.502 507.253 436.508 507.259C436.514 507.264 436.519 507.27 436.522 507.278C436.526 507.285 436.527 507.293 436.527 507.301C436.649 522.477 440.502 536.597 448.086 549.659C448.123 549.721 448.114 549.774 448.058 549.821C446.538 551.087 444.181 551.83 442.223 551.177C440.49 550.599 438.307 548.443 437.178 547.097C433.647 542.889 430.734 538.173 428.439 532.949Z" fill="url(#paint25_linear_24_2520)"/>
<path d="M581.377 549.637C588.922 536.789 592.85 522.262 592.926 507.416C592.927 507.268 593.001 507.206 593.147 507.229C596.861 507.822 599.715 509.621 601.71 512.626C603.977 516.044 604.414 521.078 603.615 525.054C603.332 526.456 602.927 527.902 602.4 529.392C600.228 535.518 597.115 541.117 593.061 546.19C591.782 547.79 590.321 549.2 588.678 550.419C586.46 552.068 583.392 551.505 581.406 549.801C581.35 549.754 581.34 549.7 581.377 549.637Z" fill="url(#paint26_linear_24_2520)"/>
<path d="M575.83 516.883C568.681 521.677 561.51 524.48 552.813 524.805C544.034 525.133 535.6 524.178 527.945 519.68C527.909 519.66 528.094 522.492 528.977 523.33C532.839 526.981 542.933 529.787 551.955 529.325C565.934 528.611 574.271 521.586 575.443 519.55C575.973 518.634 576.174 516.649 575.83 516.883Z" fill="#7FA2BA"/>
<path d="M474.188 524.805C465.493 524.48 458.319 521.678 451.171 516.884C450.826 516.653 451.028 518.638 451.554 519.554C452.726 521.59 461.063 528.615 475.042 529.329C484.064 529.79 494.158 526.984 498.02 523.334C498.789 522.606 499.001 520.395 499.046 519.82C499.049 519.761 498.988 519.722 498.936 519.752C491.313 524.188 482.921 525.13 474.188 524.805Z" fill="#7FA2BA"/>
<path d="M513.323 510.875C512.427 507.833 511.578 506.984 508.536 506.088L504.571 504.921L508.536 503.752C511.576 502.855 512.427 502.006 513.323 498.965L514.492 495L515.661 498.965C516.557 502.006 517.406 502.855 520.448 503.752L524.413 504.921L520.448 506.09C517.408 506.986 516.557 507.835 515.661 510.877L514.492 514.841L513.323 510.875Z" fill="#7FA2BA"/>
</g>
<defs>
<linearGradient id="paint0_linear_24_2520" x1="429" y1="-46" x2="428.613" y2="505" gradientUnits="userSpaceOnUse">
<stop stop-color="#AAC7FF"/>
<stop offset="1" stop-color="white"/>
</linearGradient>
<linearGradient id="paint1_linear_24_2520" x1="428.613" y1="-46" x2="428.613" y2="505" gradientUnits="userSpaceOnUse">
<stop stop-color="#FF97D0"/>
<stop offset="1" stop-color="#FBF5EF"/>
</linearGradient>
<linearGradient id="paint2_linear_24_2520" x1="398.94" y1="231.338" x2="225.467" y2="310.112" gradientUnits="userSpaceOnUse">
<stop stop-color="white"/>
<stop offset="0.578226" stop-color="white"/>
<stop offset="1" stop-color="#EBF2FF"/>
</linearGradient>
<linearGradient id="paint3_linear_24_2520" x1="164.738" y1="64.8008" x2="235.397" y2="-3.56571" gradientUnits="userSpaceOnUse">
<stop stop-color="#BFFF8D"/>
<stop offset="1" stop-color="white" stop-opacity="0"/>
</linearGradient>
<linearGradient id="paint4_linear_24_2520" x1="681.347" y1="201.389" x2="701.419" y2="185.283" gradientUnits="userSpaceOnUse">
<stop stop-color="white"/>
<stop offset="1" stop-color="white" stop-opacity="0"/>
</linearGradient>
<linearGradient id="paint5_linear_24_2520" x1="487.426" y1="295.65" x2="528.641" y2="265.524" gradientUnits="userSpaceOnUse">
<stop stop-color="#FFF962"/>
<stop offset="1" stop-color="white" stop-opacity="0"/>
</linearGradient>
<linearGradient id="paint6_linear_24_2520" x1="485.084" y1="30.5015" x2="521.575" y2="-4.43151" gradientUnits="userSpaceOnUse">
<stop stop-color="white"/>
<stop offset="1" stop-color="white" stop-opacity="0"/>
</linearGradient>
<linearGradient id="paint7_linear_24_2520" x1="282.926" y1="187.026" x2="302.062" y2="168.063" gradientUnits="userSpaceOnUse">
<stop stop-color="#FFF27E"/>
<stop offset="1" stop-color="#FFF8BD" stop-opacity="0"/>
</linearGradient>
<linearGradient id="paint8_linear_24_2520" x1="399.164" y1="92.7884" x2="423.11" y2="69.1114" gradientUnits="userSpaceOnUse">
<stop stop-color="white"/>
<stop offset="1" stop-color="#FFCACD" stop-opacity="0"/>
</linearGradient>
<linearGradient id="paint9_linear_24_2520" x1="268.827" y1="218.76" x2="279.327" y2="209.26" gradientUnits="userSpaceOnUse">
<stop stop-color="#FEFFE6"/>
<stop offset="1" stop-color="#FDFF99" stop-opacity="0"/>
</linearGradient>
<linearGradient id="paint10_linear_24_2520" x1="9.73751" y1="101.801" x2="80.3973" y2="33.4343" gradientUnits="userSpaceOnUse">
<stop stop-color="#BFFF8D"/>
<stop offset="1" stop-color="white" stop-opacity="0"/>
</linearGradient>
<linearGradient id="paint11_linear_24_2520" x1="726.667" y1="179.103" x2="802.328" y2="379.215" gradientUnits="userSpaceOnUse">
<stop stop-color="#D7FFC8" stop-opacity="0"/>
<stop offset="0.45857" stop-color="#DEFFB3" stop-opacity="0.55"/>
<stop offset="1" stop-color="#D7E5FF"/>
</linearGradient>
<linearGradient id="paint12_linear_24_2520" x1="434.9" y1="105.957" x2="527.885" y2="198.941" gradientUnits="userSpaceOnUse">
<stop stop-color="#F06C63"/>
<stop offset="1" stop-color="#FCF6FF" stop-opacity="0"/>
</linearGradient>
<linearGradient id="paint13_linear_24_2520" x1="162.898" y1="261.134" x2="164.312" y2="299.318" gradientUnits="userSpaceOnUse">
<stop stop-color="#D7F9A0"/>
<stop offset="1" stop-color="#C3FF77" stop-opacity="0"/>
</linearGradient>
<linearGradient id="paint14_linear_24_2520" x1="262.15" y1="38.2397" x2="273.408" y2="54.2974" gradientUnits="userSpaceOnUse">
<stop stop-color="#F9C6A0"/>
<stop offset="1" stop-color="#FFD177" stop-opacity="0"/>
</linearGradient>
<linearGradient id="paint15_linear_24_2520" x1="505" y1="303" x2="505" y2="2015" gradientUnits="userSpaceOnUse">
<stop stop-color="#FFDCE5"/>
<stop offset="0.125" stop-color="#A9D7F7"/>
</linearGradient>
<linearGradient id="paint16_linear_24_2520" x1="322.57" y1="343.658" x2="316.858" y2="381.33" gradientUnits="userSpaceOnUse">
<stop stop-color="#D9D2E6"/>
<stop offset="1" stop-color="#F0DCE9"/>
</linearGradient>
<linearGradient id="paint17_linear_24_2520" x1="438.317" y1="322.016" x2="430.966" y2="364.484" gradientUnits="userSpaceOnUse">
<stop stop-color="#D5CCE6"/>
<stop offset="1" stop-color="#F0DCE9"/>
</linearGradient>
<linearGradient id="paint18_linear_24_2520" x1="612.004" y1="329.651" x2="607.182" y2="361.454" gradientUnits="userSpaceOnUse">
<stop stop-color="#D9D2E6"/>
<stop offset="1" stop-color="#F0DCE9"/>
</linearGradient>
<linearGradient id="paint19_linear_24_2520" x1="709.066" y1="39.8088" x2="791.066" y2="150.809" gradientUnits="userSpaceOnUse">
<stop stop-color="#B1ECFF"/>
<stop offset="1" stop-color="#B394FF"/>
</linearGradient>
<linearGradient id="paint20_linear_24_2520" x1="600.066" y1="164.809" x2="910.566" y2="37.8088" gradientUnits="userSpaceOnUse">
<stop stop-color="#9ED0FF" stop-opacity="0.18"/>
<stop offset="0.197769" stop-color="#AECAFF"/>
<stop offset="0.493598" stop-color="#D0C0FF"/>
<stop offset="0.70733" stop-color="#9BB3FF"/>
<stop offset="1" stop-color="#6590FF" stop-opacity="0"/>
</linearGradient>
<linearGradient id="paint21_linear_24_2520" x1="649.545" y1="141.905" x2="905.066" y2="32.3089" gradientUnits="userSpaceOnUse">
<stop stop-color="#7BD7FF" stop-opacity="0.41"/>
<stop offset="0.452475" stop-color="#B6C2FF"/>
<stop offset="1" stop-color="#81D9FF" stop-opacity="0.81"/>
</linearGradient>
<linearGradient id="paint22_linear_24_2520" x1="99.1179" y1="109.695" x2="143.182" y2="210.412" gradientUnits="userSpaceOnUse">
<stop stop-color="#C3FFB4"/>
<stop offset="0.409612" stop-color="#4ADE97"/>
<stop offset="1" stop-color="#4EABB3" stop-opacity="0"/>
</linearGradient>
<linearGradient id="paint23_linear_24_2520" x1="131.271" y1="156.052" x2="92.3158" y2="180.597" gradientUnits="userSpaceOnUse">
<stop stop-color="#3AFFB8" stop-opacity="0.56"/>
<stop offset="0.983597" stop-color="#A1F0CA"/>
</linearGradient>
<linearGradient id="paint24_linear_24_2520" x1="512" y1="428.5" x2="512" y2="560" gradientUnits="userSpaceOnUse">
<stop stop-color="white"/>
<stop offset="0.502973" stop-color="white"/>
<stop offset="1" stop-color="white" stop-opacity="0"/>
</linearGradient>
<linearGradient id="paint25_linear_24_2520" x1="436.794" y1="507.245" x2="436.794" y2="551.419" gradientUnits="userSpaceOnUse">
<stop stop-color="white"/>
<stop offset="1" stop-color="white" stop-opacity="0"/>
</linearGradient>
<linearGradient id="paint26_linear_24_2520" x1="592.67" y1="507.225" x2="592.67" y2="551.405" gradientUnits="userSpaceOnUse">
<stop stop-color="white"/>
<stop offset="1" stop-color="white" stop-opacity="0"/>
</linearGradient>
</defs>
</svg>
