<svg fill="none" height="37" viewBox="0 0 36 37" width="36" xmlns="http://www.w3.org/2000/svg"><circle cx="18" cy="18.7695" r="17.25" stroke="#000" stroke-opacity=".1" stroke-width="1.5"/><path clip-rule="evenodd" d="m22.0411 11.4053c1.0972 0 2.1527.4336 2.9291 1.2117.7773.7764 1.2118 1.8237 1.2118 2.9201v6.4636c0 2.2828-1.8573 4.1319-4.1409 4.1319h-8.0828c-2.2835 0-4.13997-1.8491-4.13997-4.1319v-6.4636c0-2.2827 1.84827-4.1318 4.13997-4.1318zm1.3019 5.3512.0655-.0655c.1955-.2373.1955-.5809-.009-.8182-.1138-.1219-.27-.1963-.4328-.2127-.1719-.009-.3355.0491-.459.1636l-3.6892 2.9455c-.4746.3935-1.1545.3935-1.6364 0l-3.6818-2.9455c-.2545-.1882-.6063-.1636-.8182.0573-.2209.2209-.2454.5727-.0581.8182l.1072.1063 3.7227 2.9046c.4582.36 1.0138.5563 1.5955.5563.5801 0 1.1454-.1963 1.6028-.5563z" fill="#000" fill-opacity=".5" fill-rule="evenodd"/></svg>