<svg fill="none" height="220" viewBox="0 0 220 220" width="220" xmlns="http://www.w3.org/2000/svg" xmlns:xlink="http://www.w3.org/1999/xlink"><linearGradient id="a" gradientUnits="userSpaceOnUse" x1="110" x2="110" y1="47.9286" y2="220"><stop offset="0" stop-color="#fff" stop-opacity="0"/><stop offset="1" stop-color="#6fc7ff"/></linearGradient><linearGradient id="b" gradientUnits="userSpaceOnUse" x1="109.893" x2="102.256" y1="177.563" y2="226.98"><stop offset="0" stop-color="#8fc2f0"/><stop offset="1" stop-color="#93e6fb"/></linearGradient><linearGradient id="c" gradientUnits="userSpaceOnUse" x1="102.361" x2="96.4607" y1="131.659" y2="176.548"><stop offset="0" stop-color="#8ff0cd"/><stop offset="1" stop-color="#93e6fb"/></linearGradient><linearGradient id="d" gradientUnits="userSpaceOnUse" x1="114.065" x2="106.977" y1="89.3136" y2="131.005"><stop offset="0" stop-color="#bcffcd" stop-opacity=".22"/><stop offset="1" stop-color="#7cf8cb"/></linearGradient><linearGradient id="e" gradientUnits="userSpaceOnUse" x1="35.1724" x2="30.8139" y1=".095994" y2="28.458"><stop offset="0" stop-color="#efffbe" stop-opacity=".46"/><stop offset="1" stop-color="#92f9bc" stop-opacity=".71"/></linearGradient><mask id="f" height="220" maskUnits="userSpaceOnUse" width="220" x="0" y="0"><circle cx="110" cy="110" fill="#fff" r="110"/></mask><circle cx="110" cy="110" fill="url(#a)" r="110"/><g mask="url(#f)"><ellipse cx="110.688" cy="205.562" fill="url(#b)" rx="81.8125" ry="28.1875"/><ellipse cx="102.995" cy="154.196" fill="url(#c)" rx="65.3125" ry="22.6875" transform="matrix(.99504168 -.09945886 .09945886 .99504168 -14.825475 11.008319)"/><ellipse cx="114.526" cy="110.484" fill="url(#d)" rx="47.4375" ry="21.3125" transform="matrix(.99852201 .05434877 -.05434877 .99852201 6.173937 -6.061053)"/><ellipse cx="35.5172" cy="14.4241" fill="url(#e)" rx="35.5172" ry="14.4241" transform="matrix(.97678 -.214243 .256846 .966452 60.5 70.2188)"/></g></svg>