<svg fill="none" height="100" viewBox="0 0 100 100" width="100" xmlns="http://www.w3.org/2000/svg" xmlns:xlink="http://www.w3.org/1999/xlink"><linearGradient id="a" gradientUnits="userSpaceOnUse" x1="50" x2="50" y1="6" y2="94"><stop offset="0" stop-color="#2ff1af"/><stop offset="1" stop-color="#fff" stop-opacity="0"/></linearGradient><linearGradient id="b" gradientUnits="userSpaceOnUse" x1="50" x2="50" y1="6" y2="99.6279"><stop offset="0" stop-color="#00ee9d"/><stop offset="1" stop-color="#b5ffe6" stop-opacity=".03"/></linearGradient><g stroke-width="2"><path d="m3 7h94v86h-94z" fill="url(#a)" stroke="url(#b)"/><rect height="20" rx="10" stroke="#41e8b0" width="20" x="14" y="29"/><path d="m65 51h22v22h-22z" stroke="#9ef3d6"/><path d="m35 39h15" stroke="#41e8b0"/><path d="m49 39v22" stroke="#41e8b0"/></g><path d="m65.7071 62.7071c.3905-.3905.3905-1.0237 0-1.4142l-6.364-6.364c-.3905-.3905-1.0236-.3905-1.4142 0-.3905.3906-.3905 1.0237 0 1.4142l5.6569 5.6569-5.6569 5.6569c-.3905.3905-.3905 1.0236 0 1.4142.3906.3905 1.0237.3905 1.4142 0zm-17.7071.2929h17v-2h-17z" fill="#41e8b0"/></svg>