<svg fill="none" height="220" viewBox="0 0 221 220" width="221" xmlns="http://www.w3.org/2000/svg" xmlns:xlink="http://www.w3.org/1999/xlink"><linearGradient id="a" gradientUnits="userSpaceOnUse" x1="110.5" x2="110.5" y1="47.9286" y2="220"><stop offset="0" stop-color="#fff" stop-opacity="0"/><stop offset="1" stop-color="#cec6ff"/></linearGradient><linearGradient id="b"><stop offset="0" stop-color="#0600ff" stop-opacity=".77"/><stop offset="1" stop-color="#0600ff" stop-opacity=".03"/></linearGradient><linearGradient id="c" gradientUnits="userSpaceOnUse" x1="95.6428" x2="95.6428" xlink:href="#b" y1="48.7144" y2="220.633"/><linearGradient id="d" gradientUnits="userSpaceOnUse" x1="125.357" x2="125.357" xlink:href="#b" y1="48.7144" y2="220.633"/><linearGradient id="e" gradientUnits="userSpaceOnUse" x1="111.561" x2="111.286" y1="93.8164" y2="123.969"><stop offset=".130821" stop-color="#fff"/><stop offset="1" stop-color="#a4a2f7" stop-opacity="0"/></linearGradient><mask id="f" height="220" maskUnits="userSpaceOnUse" width="221" x="0" y="0"><circle cx="110.5" cy="110" fill="url(#a)" r="110"/></mask><circle cx="110.5" cy="110" fill="url(#a)" r="110"/><g mask="url(#f)"><path d="m145.442 182.739c-3.751-5.916-8.025-8.554-13.86-8.554h-5.497v-23.255c7.628-4.488 14.084-10.641 18.823-17.926.983.893 2.27 1.421 3.959 1.421 2.51 0 6.039-3.933 8.502-7.612 2.479-3.702 5.131-9.067 5.131-13.023 0-7.644-5.626-9.87-8.907-10.024-.057-30.3641-25.787-55.0516-57.4072-55.0516-31.6197 0-57.3477 24.6875-57.4045 55.0546-3.2811.154-8.907 2.379-8.907 10.023 0 3.959 2.6491 9.323 5.1306 13.024 2.466 3.679 5.9922 7.611 8.5021 7.611 1.6896 0 2.9768-.53 3.9595-1.421 4.7644 7.328 11.27 13.509 18.9543 18.005v16.657c0 3.378-2.9948 6.127-6.6783 6.127h-6.0181c-6.8924 0-13.1555 2.237-17.6335 6.302-4.7799 4.337-7.3052 10.436-7.3052 17.635v22.901h64.2919 64.2914l-8.025-28.401c-.802-3.48-2.115-6.673-3.902-9.493z" fill="url(#c)"/><path d="m175.156 182.739c-3.751-5.916-8.025-8.554-13.86-8.554h-5.497v-23.255c7.628-4.488 14.084-10.641 18.823-17.926.983.893 2.27 1.421 3.96 1.421 2.509 0 6.038-3.933 8.502-7.612 2.478-3.702 5.13-9.067 5.13-13.023 0-7.644-5.626-9.87-8.907-10.024-.057-30.3641-25.787-55.0516-57.407-55.0516-31.6196 0-57.3477 24.6875-57.4044 55.0546-3.2812.154-8.9071 2.379-8.9071 10.023 0 3.959 2.6492 9.323 5.1306 13.024 2.4661 3.679 5.9923 7.611 8.5021 7.611 1.6896 0 2.9768-.53 3.9596-1.421 4.7643 7.328 11.2699 13.509 18.9543 18.005v16.657c0 3.378-2.9949 6.127-6.6784 6.127h-6.018c-6.8925 0-13.1555 2.237-17.6336 6.302-4.7798 4.337-7.3052 10.436-7.3052 17.635v22.901h64.2921 64.292l-8.025-28.401c-.803-3.48-2.115-6.673-3.903-9.493z" fill="url(#d)"/><path d="m98.844 103.367c.2975.065.5978.121.901.167 6.602 1.008 11.273 6.944 11.801 13.612 0 .012.007.017.018.017h.001c.012 0 .018-.005.019-.017.58-7.156 5.648-12.996 12.706-13.744.002-.001.003-.002.004-.004.001-.001.002-.003.002-.005 0-.003-.001-.005-.002-.006-.001-.002-.002-.003-.004-.004-3.031-.326-5.649-1.504-7.853-3.5331-2.868-2.6418-4.569-6.3021-4.852-10.2633-.001-.0044-.003-.0082-.007-.0109-.003-.0027-.008-.0042-.012-.0042s-.008.0015-.012.0042c-.003.0027-.006.0065-.007.0109-.462 7.0984-5.736 13.1364-12.7144 13.7904-.0028 0-.0047-.002-.0057-.006 0-.001 0-.002 0-.003-.0009-.002 0-.003.0029-.003.0047 0 .0094.001.0142.002z" fill="url(#e)"/></g></svg>