<svg fill="none" height="87" viewBox="0 0 98 87" width="98" xmlns="http://www.w3.org/2000/svg" xmlns:xlink="http://www.w3.org/1999/xlink"><linearGradient id="a" gradientUnits="userSpaceOnUse" x1="47.775" x2="47.775" y1="2" y2="102"><stop offset="0" stop-color="#ffd8ab"/><stop offset="1" stop-color="#fff" stop-opacity="0"/></linearGradient><linearGradient id="b" gradientUnits="userSpaceOnUse" x1="47.775" x2="47.775" y1="2" y2="102"><stop offset="0" stop-color="#ffca8d"/><stop offset="1" stop-color="#fff" stop-opacity="0"/></linearGradient><linearGradient id="c" gradientUnits="userSpaceOnUse" x1="49" x2="49" y1="29.5" y2="88.5"><stop offset="0" stop-color="#fffbf5"/><stop offset="1" stop-color="#ffc786"/></linearGradient><mask id="d" height="87" maskUnits="userSpaceOnUse" width="98" x="0" y="0"><path d="m.5 20c0-10.76955 8.73045-19.5 19.5-19.5h58c10.7695 0 19.5 8.73045 19.5 19.5v59c0 4.1421-3.3579 7.5-7.5 7.5h-82c-4.14213 0-7.5-3.3579-7.5-7.5z" fill="#fbf5ef" stroke="#000"/></mask><mask id="e" height="109" maskUnits="userSpaceOnUse" width="104" x="-3" y="0"><ellipse cx="49" cy="54.5" fill="#612c1b" rx="52" ry="54.5"/></mask><g mask="url(#d)"><path d="m97 52c0 27.0811-21.5093 49-48 49s-48-21.9189-48-49 21.5093-49 48-49 48 21.9189 48 49z" fill="url(#a)" stroke="url(#b)" stroke-width="2"/><g mask="url(#e)"><path d="m70.6008 84.271c-1.6269-2.8371-3.4809-4.1018-6.0118-4.1018h-2.3844v-11.152c3.3086-2.1525 6.1092-5.1031 8.1646-8.5964.4263.428.9846.6812 1.7175.6812 1.0886 0 2.6193-1.8857 3.6878-3.65 1.0753-1.7756 2.2255-4.3481 2.2255-6.2452 0-3.6658-2.4403-4.733-3.8635-4.8068-.0246-14.5612-11.1856-26.4-24.901-26.4-13.7153 0-24.8752 11.8388-24.8998 26.4011-1.4232.0738-3.8635 1.141-3.8635 4.8068 0 1.8983 1.1491 4.4708 2.2254 6.2453 1.0697 1.7642 2.5992 3.6499 3.6879 3.6499.7329 0 1.2912-.2543 1.7175-.6811 2.0666 3.5137 4.8885 6.4779 8.2216 8.6338v7.9879c0 1.6201-1.299 2.9381-2.8968 2.9381h-2.6104c-2.9896 0-5.7063 1.0729-7.6487 3.0222-2.0733 2.0798-3.1687 5.0043-3.1687 8.4567v18.5393h56.7032l-4.4095-21.1765c-.348-1.6689-.9175-3.2004-1.6929-4.5525z" fill="url(#c)"/><path clip-rule="evenodd" d="m48.9997 40.6074c0-2.095-1.6939-3.7945-3.7868-3.8037 2.0929-.0091 3.7868-1.7086 3.7868-3.8037h.0003c0 2.097 1.6969 3.7977 3.7926 3.8037-2.0955.0062-3.7923 1.7068-3.7923 3.8037v.0001c-.0001 0-.0002 0-.0003 0h-.0003z" fill="#ffaf52" fill-rule="evenodd"/></g><g fill="#444936"><path d="m70.1178 40.9182c-2.4692 1.6558-4.9462 2.6239-7.9504 2.7361-3.0323.1133-5.9457-.2165-8.5898-1.7702-.0123-.0068.0516.9715.3567 1.2609 1.3339 1.2609 4.8205 2.2302 7.9369 2.0709 4.8284-.2468 7.7081-2.6733 8.1131-3.3767.1828-.3164.2524-1.0018.1335-.921z"/><path d="m35.0093 43.6541c-3.0031-.1121-5.4812-1.0803-7.9504-2.7361-.1189-.0796-.0493.6058.1324.9221.405.7034 3.2847 3.1299 8.113 3.3767 3.1165.1593 6.6031-.8099 7.9369-2.0708.2659-.2513.3388-1.0153.3545-1.2139.0012-.0202-.0201-.0336-.0381-.0235-2.6329 1.5324-5.5317 1.8577-8.5483 1.7455z"/></g></g></svg>