<svg fill="none" height="29" viewBox="0 0 30 29" width="30" xmlns="http://www.w3.org/2000/svg"><path d="m24.4508 5.24402c-1.8821-1.88318-4.2814-3.16679-6.8932-3.68601-2.6118-.51921-5.3189-.25342-7.77985.76543-2.4609 1.01886-4.56365 2.74442-6.04347 4.95829-1.47983 2.21387-2.269 4.81717-2.269 7.47917 0 2.663.78917 5.2653 2.269 7.4802 1.47982 2.2138 3.58257 3.9394 6.04347 4.9583 2.45985 1.0188 5.16805 1.2846 7.77985.7644 2.6118-.5193 5.0101-1.8029 6.8932-3.686 2.5235-2.525 3.9407-5.9483 3.9407-9.5169 0-3.5696-1.4172-6.99292-3.9407-9.51688zm-6.7033 12.33138c-.5563.5552-1.2654.9343-2.0371 1.0878s-1.5712.0742-2.2988-.2276c-.7265-.3009-1.3484-.8108-1.7846-1.465-.4372-.6541-.6701-1.4237-.6701-2.2097s.2329-1.5556.6701-2.2098c.4372-.6541 1.0581-1.1641 1.7846-1.4649.7266-.3008 1.5271-.3801 2.2988-.2277.7717.1535 1.4808.5316 2.0371 1.0879.3704.3699.6639.8087.864 1.2908.2002.4832.3038 1.0004.3038 1.5237s-.1036 1.0405-.3038 1.5236c-.2001.4832-.4936.921-.864 1.2909zm10.8267 7.9242c-.2874-.2875-.6527-.4842-1.0509-.5636-.3981-.0803-.8107-.0401-1.1863.1154-.3756.1556-.6968.4183-.9226.7562-.2257.3379-.3468.7345-.3468 1.1404s.1211.8035.3468 1.1404c.2258.3379.547.6006.9226.7562.3756.1545.7882.1947 1.1863.1154.3982-.0794.7635-.2751 1.0509-.5636.3828-.3842.5983-.9055.5983-1.4484.001-.5429-.2145-1.0642-.5983-1.4484zm-27.28748-21.47738c.28734.28948.65371.48728 1.05291.56763.39921.08036.8138.04121 1.19043-.11435.37663-.15453.69886-.41928.92566-.75719.2268-.33893.34789-.73658.34789-1.14453 0-.40796-.12109-.80561-.34789-1.14454s-.54903-.60266-.92566-.757188c-.37765-.155558-.79122-.195736-1.19043-.114351-.40023.080355-.76659.278151-1.05291.567629-.382785.38529-.597267.90554-.597267 1.44845s.214482 1.06315.597267 1.44844z" fill="#292929"/></svg>